#N canvas 1607 45 1427 950 12;
#X obj 217 211 netreceive -u -b;
#X obj 217 235 oscparse;
#X obj 216 261 list trim;
#X obj 144 293 print OSC;
#X text 53 19 This listens for OSC messages and parses them so they can be used in the patch. This uses objects in the virtual sound library which can be found at: https://virtual-sound.com/pure-data-electronic-music-and-sound-design-volume-1-support/, f 93;
#X msg 216 183 listen 8000;
#X obj 228 389 route x y, f 45;
#X floatatom 709 545 5 1 5 0 - - - 0;
#X obj 708 577 select 1 2 3 4 5, f 65;
#X symbolatom 714 705 16 0 0 0 - - - 0;
#X msg 982 617 Brian;
#X msg 1070 617 Caron;
#X obj 711 515 vs.counter 1 5;
#X obj 710 476 bng 19 250 50 0 empty empty empty 0 -10 0 12 #fcfcfc #000000 #000000;
#X obj 713 673 symbol;
#X obj 714 736 oscformat student;
#X obj 714 770 netsend -u -b;
#X obj 214 99 loadbang;
#X msg 1213 355 connect localhost 9000;
#X msg 279 290 button 1;
#X msg 98 143 \; pd dsp 1;
#X msg 1005 496 \; pd dsp 0;
#X obj 586 770 print outgoing;
#X msg 363 291 button 0;
#X obj 710 445 select 1;
#X msg 891 615 Chris;
#X msg 798 611 Paul;
#X msg 708 612 Nothing;
#X obj 92 768 *~ 0.1, f 68;
#X obj 95 818 dac~ 1 2;
#X obj 85 646 vs.sel~, f 20;
#X obj 43 100 loadbang;
#X msg 42 146 1;
#N canvas 760 208 643 523 paulPatch 0;
#X obj 103 41 inlet;
#X obj 259 42 inlet;
#X obj 104 101 vs.blsaw~;
#X obj 104 70 vs.scale 0 1 220 880;
#X obj 259 70 vs.scale 0 1 220 8000;
#X obj 105 131 vs.lowpass~ 1000 5, f 43;
#X obj 106 161 outlet~;
#X connect 0 0 3 0;
#X connect 1 0 4 0;
#X connect 2 0 5 0;
#X connect 3 0 2 0;
#X connect 4 0 5 1;
#X connect 5 0 6 0;
#X restore 237 552 pd paulPatch;
#N canvas 739 400 778 667 chrisPatch 0;
#X obj 110 81 inlet;
#X obj 245 91 inlet;
#X obj 106 295 outlet~;
#X obj 118 184 vs.bltri~;
#X obj 118 153 vs.scale 0 1 110 440;
#X obj 273 153 vs.scale 0 1 80 880;
#X obj 119 221 vs.highpass~ 880 5, f 43;
#X connect 0 0 4 0;
#X connect 1 0 5 0;
#X connect 3 0 6 0;
#X connect 4 0 3 0;
#X connect 5 0 6 1;
#X connect 6 0 2 0;
#X restore 334 602 pd chrisPatch;
#N canvas 638 244 527 471 brianPatch 0;
#X msg 69 158 speed \$1;
#X msg 168 173 loop 1;
#X text 144 146 sound file;
#X obj 70 205 vs.splayer~ /home/millerzero64/Desktop/soundFiles/bells.aif, f 20;
#X obj 68 116 vs.scale 0 1 0 40;
#X msg 256 159 speed \$1;
#X msg 355 174 loop 1;
#X text 331 147 sound file;
#X obj 257 206 vs.splayer~ /home/millerzero64/Desktop/soundFiles/bells.aif, f 20;
#X obj 255 117 vs.scale 0 1 0 40;
#X obj 72 279 +~;
#X obj 260 279 +~;
#X obj 72 308 +~;
#X obj 72 336 *~ 0.33;
#X obj 72 54 inlet;
#X obj 256 52 inlet;
#X obj 421 61 loadbang;
#X obj 68 387 outlet~;
#X connect 0 0 3 0;
#X connect 1 0 3 0;
#X connect 3 0 10 0;
#X connect 3 1 10 1;
#X connect 4 0 0 0;
#X connect 5 0 8 0;
#X connect 6 0 8 0;
#X connect 8 0 11 0;
#X connect 8 1 11 1;
#X connect 9 0 5 0;
#X connect 10 0 12 0;
#X connect 11 0 12 1;
#X connect 12 0 13 0;
#X connect 13 0 17 0;
#X connect 14 0 4 0;
#X connect 15 0 9 0;
#X connect 16 0 6 0;
#X connect 16 0 8 0;
#X connect 16 0 1 0;
#X connect 16 0 3 0;
#X restore 394 550 pd brianPatch;
#X obj 281 684 vs.sel3~, f 25;
#N canvas 879 287 711 906 caronPatch 0;
#X obj 79 60 inlet;
#X obj 292 62 inlet;
#X obj 75 436 outlet~;
#X obj 74 392 osc~;
#X obj 144 242 osc~;
#X obj 80 110 vs.scale 0 1 100 400;
#X obj 293 109 vs.scale 0 1 0 5;
#X obj 140 165 *~;
#X obj 196 207 *~;
#X obj 426 110 vs.scale 0 1 1 3;
#X obj 141 318 *~;
#X text 73 22 simple FM synth like simpleFM~ in Max;
#X text 201 244 modulating oscillator;
#X text 292 131 harmonicity;
#X text 429 136 mod index;
#X text 94 86 carrier freq;
#X obj 72 356 +~;
#X text 124 392 carrier oscillator;
#X connect 0 0 5 0;
#X connect 1 0 6 0;
#X connect 1 0 9 0;
#X connect 3 0 2 0;
#X connect 4 0 10 0;
#X connect 5 0 7 0;
#X connect 5 0 16 0;
#X connect 6 0 7 1;
#X connect 7 0 8 0;
#X connect 7 0 4 0;
#X connect 8 0 10 1;
#X connect 9 0 8 1;
#X connect 10 0 16 1;
#X connect 16 0 3 0;
#X restore 457 592 pd caronPatch;
#N canvas 979 501 450 300 smooth 0;
#X obj 52 36 inlet;
#X obj 181 36 inlet;
#X obj 52 99 vs.line~;
#X msg 53 65 \$1 200;
#X obj 51 128 vs.number~;
#X obj 180 99 vs.line~;
#X msg 181 65 \$1 200;
#X obj 179 128 vs.number~;
#X obj 51 167 outlet;
#X obj 179 165 outlet;
#X text 31 6 This subpatch smooths out the incoming joystick data.;
#X connect 0 0 3 0;
#X connect 1 0 6 0;
#X connect 2 0 4 0;
#X connect 3 0 2 0;
#X connect 4 0 8 0;
#X connect 5 0 7 0;
#X connect 6 0 5 0;
#X connect 7 0 9 0;
#X restore 226 422 pd smooth;
#X f 23;
#X text 860 672 Put names here \, to be sent out to LCD screen.;
#X obj 227 356 route joystick pot button shutdown, f 136;
#X obj 937 397 select 1;
#X obj 938 429 t b b, f 10;
#X text 1034 393 when OSC shutdown 1 message received \, ramp audio down to 0 gracefully and kill DSP.;
#X obj 938 497 vs.line;
#X msg 938 463 0 100;
#X obj 1005 465 delay 120;
#X connect 0 0 1 0;
#X connect 1 0 2 0;
#X connect 2 0 40 0;
#X connect 5 0 0 0;
#X connect 6 0 38 0;
#X connect 6 1 38 1;
#X connect 7 0 8 0;
#X connect 8 0 27 0;
#X connect 8 1 26 0;
#X connect 8 2 25 0;
#X connect 8 3 10 0;
#X connect 8 4 11 0;
#X connect 9 0 15 0;
#X connect 10 0 14 0;
#X connect 11 0 14 0;
#X connect 12 0 7 0;
#X connect 12 0 30 0;
#X connect 13 0 12 0;
#X connect 14 0 9 0;
#X connect 15 0 16 0;
#X connect 17 0 18 0;
#X connect 17 0 5 0;
#X connect 17 0 20 0;
#X connect 18 0 16 0;
#X connect 19 0 40 0;
#X connect 23 0 40 0;
#X connect 24 0 13 0;
#X connect 25 0 14 0;
#X connect 26 0 14 0;
#X connect 27 0 14 0;
#X connect 28 0 29 0;
#X connect 28 0 29 1;
#X connect 30 0 28 0;
#X connect 30 1 36 0;
#X connect 31 0 32 0;
#X connect 32 0 30 0;
#X connect 33 0 30 2;
#X connect 34 0 36 1;
#X connect 35 0 36 2;
#X connect 36 0 28 0;
#X connect 37 0 36 3;
#X connect 38 0 33 0;
#X connect 38 0 34 0;
#X connect 38 0 35 0;
#X connect 38 0 37 0;
#X connect 38 1 33 1;
#X connect 38 1 34 1;
#X connect 38 1 35 1;
#X connect 38 1 37 1;
#X connect 40 0 6 0;
#X connect 40 1 28 1;
#X connect 40 2 24 0;
#X connect 40 3 41 0;
#X connect 41 0 42 0;
#X connect 42 0 45 0;
#X connect 42 1 46 0;
#X connect 44 0 28 1;
#X connect 45 0 44 0;
#X connect 46 0 21 0;
