#N canvas 1000 205 894 777 12;
#X msg 92 189 listen 9000;
#X obj 93 216 netreceive -u -b;
#X obj 92 159 bng 19 250 50 0 empty empty empty 0 -10 0 12 #fcfcfc #000000 #000000;
#X obj 93 241 oscparse;
#X obj 92 267 list trim;
#X obj 156 304 print OSC;
#X obj 86 617 vs.gain~;
#X obj 85 738 dac~ 1 2;
#X obj 86 562 vs.sel4~, f 47;
#X obj 86 589 *~ 1, f 49;
#X floatatom 598 529 5 1 5 0 - - - 0;
#X obj 598 420 bng 19 250 50 0 empty empty empty 0 -10 0 12 #fcfcfc #000000 #000000;
#X obj 598 381 select 1;
#X obj 91 336 route boxID distanceCM pot button, f 97;
#X floatatom 91 370 5 0 0 0 - - - 0;
#X floatatom 180 459 5 0 0 0 - - - 0;
#X floatatom 427 424 5 0 0 0 - - - 0;
#X obj 598 499 vs.counter 1 4;
#N canvas 121 146 455 345 Chris 0;
#X obj 60 120 vs.blsaw~ 440;
#X obj 62 176 vs.lowpass~ 1000 2, f 30;
#X obj 164 120 vs.scale 0 400 200 8000;
#X obj 164 59 inlet;
#X obj 67 232 outlet~;
#X connect 0 0 1 0;
#X connect 1 0 4 0;
#X connect 2 0 1 1;
#X connect 3 0 2 0;
#X restore 265 501 pd Chris;
#X text 36 368 boxID:;
#X msg 256 214 \; pd dsp 0;
#X msg 257 172 \; pd dsp 1;
#X obj 181 425 vs.number~;
#X obj 180 400 vs.line~;
#X msg 182 373 \$1 200;
#X obj 428 381 vs.scale 0.19 1 0 1;
#X text 53 432 distance in cm;
#X text 297 424 amplitude scaling;
#X text 231 303 patch this in to view incoming OSC messages;
#X text 124 652 final gain scaling;
#N canvas 693 592 323 273 Ruth 0;
#X obj 88 41 inlet;
#X obj 90 148 outlet~;
#X obj 88 111 vs.blsquare~;
#X obj 88 83 vs.scale 0 400 220 880;
#X connect 0 0 3 0;
#X connect 2 0 1 0;
#X connect 3 0 2 0;
#X restore 179 500 pd Ruth;
#N canvas 150 175 562 416 Abdul 0;
#X msg 124 157 speed \$1;
#X floatatom 121 129 5 0 0 0 - - - 0;
#X msg 249 173 loop 1;
#X text 171 116 sound file;
#X obj 125 204 vs.splayer~ /Users/millerp3/Desktop/bells.aif;
#X obj 122 86 vs.scale 0 400 0 40;
#X obj 123 44 inlet;
#X obj 128 248 outlet~;
#X obj 273 111 loadbang;
#X connect 0 0 4 0;
#X connect 1 0 0 0;
#X connect 2 0 4 0;
#X connect 4 0 7 0;
#X connect 5 0 1 0;
#X connect 6 0 5 0;
#X connect 8 0 2 0;
#X connect 8 0 4 0;
#X restore 353 502 pd Abdul;
#X text 40 489 drop students' patches here as subpatches, f 16;
#X text 21 7 distance-sensor-main.pd || Paul V. Miller \, 2025 || Duquesne University This patch listens for OSC messages over a local WiFi network \, and parses them so they can be used in the patch. Each transmitter sends a boxID code \, so multiple devices can be used simultaneously in an ensemble performance. We use objects in the virtual sound library which can be found at: https://virtual-sound.com/pure-data-electronic-music-and-sound-design-volume-1-support/ The corresponding Python script that runs on the Raspberry Pi Zero W can be downloaded from: https://github.com/lauprellim/projects/tree/main/makers-lab-demos/distance-pico-w, f 114;
#X connect 0 0 1 0;
#X connect 1 0 3 0;
#X connect 2 0 0 0;
#X connect 3 0 4 0;
#X connect 4 0 13 0;
#X connect 6 0 7 0;
#X connect 6 0 7 1;
#X connect 8 0 9 0;
#X connect 9 0 6 0;
#X connect 11 0 17 0;
#X connect 12 0 11 0;
#X connect 13 0 14 0;
#X connect 13 1 24 0;
#X connect 13 2 25 0;
#X connect 13 3 12 0;
#X connect 15 0 30 0;
#X connect 15 0 18 0;
#X connect 15 0 31 0;
#X connect 16 0 9 1;
#X connect 17 0 10 0;
#X connect 17 0 8 0;
#X connect 18 0 8 3;
#X connect 22 0 15 0;
#X connect 23 0 22 0;
#X connect 24 0 23 0;
#X connect 25 0 16 0;
#X connect 30 0 8 2;
#X connect 31 0 8 4;
