#N canvas 1032 201 1052 1076 12;
#X msg 140 96 listen 9000;
#X obj 141 123 netreceive -u -b;
#X obj 141 55 bng 19 250 50 0 empty empty empty 0 -10 0 12 #fcfcfc #000000 #000000;
#X obj 141 148 oscparse;
#X obj 140 174 list trim;
#X obj 204 211 print OSC;
#X text 21 7 This listens for OSC messages and parses them so they can be used in the patch. This uses objects in the virtual sound library which can be found at: https://virtual-sound.com/pure-data-electronic-music-and-sound-design-volume-1-support/, f 93;
#X obj 132 549 vs.gain~;
#X obj 134 681 dac~ 1 2;
#X obj 134 469 vs.sel4~, f 39;
#X obj 136 509 *~ 1, f 56;
#X floatatom 583 461 5 1 5 0 - - - 0;
#X obj 580 384 bng 19 250 50 0 empty empty empty 0 -10 0 12 #fcfcfc #000000 #000000;
#X obj 584 340 select 1;
#X obj 141 246 route boxID distanceCM pot button, f 83;
#X floatatom 140 303 5 0 0 0 - - - 0;
#X floatatom 284 364 5 0 0 0 - - - 0;
#X floatatom 525 401 5 0 0 0 - - - 0;
#X obj 581 423 vs.counter 1 4;
#N canvas 693 592 323 273 Paul 0;
#X obj 88 41 inlet;
#X obj 90 148 outlet~;
#X obj 88 111 vs.blsquare~;
#X obj 88 83 vs.scale 0 400 220 880;
#X connect 0 0 3 0;
#X connect 2 0 1 0;
#X connect 3 0 2 0;
#X restore 260 400 pd Paul;
#N canvas 121 146 455 345 Chris 0;
#X obj 60 120 vs.blsaw~ 440;
#X obj 62 176 vs.lowpass~ 1000 2, f 30;
#X obj 164 120 vs.scale 0 400 200 8000;
#X obj 164 59 inlet;
#X obj 67 232 outlet~;
#X connect 0 0 1 0;
#X connect 1 0 4 0;
#X connect 2 0 1 1;
#X connect 3 0 2 0;
#X restore 337 404 pd Chris;
#N canvas 150 175 562 416 Brian 0;
#X msg 124 157 speed \$1;
#X floatatom 121 129 5 0 0 0 - - - 0;
#X msg 249 173 loop 1;
#X text 171 116 sound file;
#X obj 125 204 vs.splayer~ /Users/millerp3/Desktop/bells.aif;
#X obj 122 86 vs.scale 0 400 0 40;
#X obj 123 44 inlet;
#X obj 128 248 outlet~;
#X obj 273 111 loadbang;
#X connect 0 0 4 0;
#X connect 1 0 0 0;
#X connect 2 0 4 0;
#X connect 4 0 7 0;
#X connect 5 0 1 0;
#X connect 6 0 5 0;
#X connect 8 0 2 0;
#X connect 8 0 4 0;
#X restore 409 406 pd Brian;
#X text 84 303 boxID:;
#X msg 298 111 \; pd dsp 0;
#X msg 302 70 \; pd dsp 1;
#X obj 284 333 vs.number~;
#X obj 284 305 vs.line~;
#X msg 286 278 \$1 200;
#X obj 427 292 vs.scale 0.19 1 0 1;
#X connect 0 0 1 0;
#X connect 1 0 3 0;
#X connect 2 0 0 0;
#X connect 3 0 4 0;
#X connect 4 0 14 0;
#X connect 7 0 8 0;
#X connect 7 0 8 1;
#X connect 9 0 10 0;
#X connect 10 0 7 0;
#X connect 12 0 18 0;
#X connect 13 0 12 0;
#X connect 14 0 15 0;
#X connect 14 1 27 0;
#X connect 14 2 28 0;
#X connect 14 3 13 0;
#X connect 16 0 19 0;
#X connect 16 0 20 0;
#X connect 16 0 21 0;
#X connect 17 0 10 1;
#X connect 18 0 11 0;
#X connect 18 0 9 0;
#X connect 19 0 9 2;
#X connect 20 0 9 3;
#X connect 21 0 9 4;
#X connect 25 0 16 0;
#X connect 26 0 25 0;
#X connect 27 0 26 0;
#X connect 28 0 17 0;
