#N canvas 1272 332 474 681 12;
#X msg 140 96 listen 9000;
#X obj 141 122 netreceive -u -b;
#X obj 139 56 bng 19 250 50 0 empty empty empty 0 -10 0 12 #fcfcfc #000000 #000000;
#X obj 143 148 oscparse;
#X obj 143 177 list trim;
#X obj 204 211 print OSC;
#X obj 139 281 hsl 162 19 0 127 0 0 empty empty empty -2 -10 0 12 #faff00 #000000 #000000 0 1;
#X obj 137 237 route distance;
#X text 24 13 This listens for OSC messages and parses them so they can be used in the patch.;
#X connect 0 0 1 0;
#X connect 1 0 3 0;
#X connect 2 0 0 0;
#X connect 3 0 4 0;
#X connect 4 0 5 0;
#X connect 4 0 7 0;
#X connect 7 0 6 0;
