#N canvas 549 468 718 815 12;
#X msg 140 96 listen 9000;
#X obj 141 122 netreceive -u -b;
#X obj 139 56 bng 19 250 50 0 empty empty empty 0 -10 0 12 #fcfcfc #000000 #000000;
#X obj 143 148 oscparse;
#X obj 143 177 list trim;
#X obj 204 211 print OSC;
#X obj 379 565 hsl 162 19 0 127 0 0 empty empty empty -2 -10 0 12 #faff00 #000000 #000000 0 1;
#X symbolatom 51 295 10 0 0 0 - - - 0;
#X obj 51 246 unpack s f f;
#X listbox 155 293 20 0 0 0 - - - 0;
#X listbox 305 295 20 0 0 0 - - - 0;
#X listbox 453 295 20 0 0 0 - - - 0;
#X obj 277 369 unpack f f;
#X obj 155 246 route off freq filter1 filter2, f 78;
#X listbox 603 295 20 0 0 0 - - - 0;
#X text 21 7 This listens for OSC messages and parses them so they can be used in the patch. This uses objects in the virtual sound library which can be found at: https://virtual-sound.com/pure-data-electronic-music-and-sound-design-volume-1-support/, f 93;
#X obj 277 398 vs.scale 3 220 220 880;
#X obj 274 457 vs.square~;
#X floatatom 211 444 5 0 0 0 - - - 0;
#X floatatom 397 454 5 0 0 0 - - - 0;
#X obj 274 543 vs.gain~;
#X obj 272 682 dac~ 1 2;
#X obj 275 505 *~;
#X connect 0 0 1 0;
#X connect 1 0 3 0;
#X connect 2 0 0 0;
#X connect 3 0 4 0;
#X connect 4 0 5 0;
#X connect 4 0 8 0;
#X connect 4 0 13 0;
#X connect 8 0 7 0;
#X connect 12 0 16 0;
#X connect 12 1 19 0;
#X connect 13 0 9 0;
#X connect 13 1 10 0;
#X connect 13 1 12 0;
#X connect 13 2 11 0;
#X connect 13 3 14 0;
#X connect 16 0 17 0;
#X connect 16 0 18 0;
#X connect 17 0 22 0;
#X connect 19 0 22 1;
#X connect 20 0 21 0;
#X connect 20 0 21 1;
#X connect 22 0 20 0;
