#N canvas 1023 150 1391 881 12;
#X msg 140 96 listen 9000;
#X obj 141 123 netreceive -u -b;
#X obj 139 56 bng 19 250 50 0 empty empty empty 0 -10 0 12 #fcfcfc #000000 #000000;
#X obj 141 148 oscparse;
#X obj 140 174 list trim;
#X obj 204 211 print OSC;
#X symbolatom 27 289 10 0 0 0 - - - 0;
#X obj 25 247 unpack s f f;
#X obj 370 312 unpack f f, f 23;
#X obj 140 247 route off freq filter1 filter2, f 159;
#X text 21 7 This listens for OSC messages and parses them so they can be used in the patch. This uses objects in the virtual sound library which can be found at: https://virtual-sound.com/pure-data-electronic-music-and-sound-design-volume-1-support/, f 93;
#X floatatom 537 344 5 0 0 0 - - - 0;
#X obj 134 559 vs.gain~;
#X obj 131 684 dac~ 1 2;
#X obj 370 409 *~, f 24;
#X obj 694 305 unpack f f, f 26;
#X obj 368 376 vs.blsquare~;
#X obj 592 339 vs.blsaw~ 440;
#X floatatom 875 339 5 0 0 0 - - - 0;
#X obj 591 436 *~, f 41;
#X obj 594 395 vs.lowpass~ 1000 2, f 30;
#X obj 371 344 vs.scale 0 400 220 880;
#X floatatom 140 355 5 0 0 0 - - - 0;
#X obj 135 517 vs.sel4~, f 135;
#X msg 143 309 0;
#X msg 191 310 1;
#X msg 227 309 2;
#X obj 696 339 vs.scale 0 400 200 8000;
#X msg 265 309 3;
#X msg 947 393 speed \$1;
#X floatatom 944 365 5 0 0 0 - - - 0;
#X msg 1072 409 loop 1;
#X obj 948 440 vs.splayer~ /Users/millerp3/Desktop/cat.aif;
#X obj 1006 287 unpack f f, f 36;
#X floatatom 1252 325 5 0 0 0 - - - 0;
#X obj 949 474 *~ 1, f 45;
#X obj 1009 323 vs.scale 0 400 0 5;
#X text 162 388 selector;
#X text 392 453 frequency;
#X text 618 476 filter;
#X text 1114 499 sound file;
#X connect 0 0 1 0;
#X connect 1 0 3 0;
#X connect 2 0 0 0;
#X connect 3 0 4 0;
#X connect 4 0 5 0;
#X connect 4 0 7 0;
#X connect 4 0 9 0;
#X connect 7 0 6 0;
#X connect 8 0 21 0;
#X connect 8 1 11 0;
#X connect 9 0 24 0;
#X connect 9 1 8 0;
#X connect 9 1 25 0;
#X connect 9 2 15 0;
#X connect 9 2 26 0;
#X connect 9 3 28 0;
#X connect 9 3 33 0;
#X connect 11 0 14 1;
#X connect 12 0 13 0;
#X connect 12 0 13 1;
#X connect 14 0 23 1;
#X connect 15 0 27 0;
#X connect 15 1 18 0;
#X connect 16 0 14 0;
#X connect 17 0 20 0;
#X connect 18 0 19 1;
#X connect 19 0 23 2;
#X connect 20 0 19 0;
#X connect 21 0 16 0;
#X connect 22 0 23 0;
#X connect 23 0 12 0;
#X connect 24 0 22 0;
#X connect 25 0 22 0;
#X connect 26 0 22 0;
#X connect 27 0 20 1;
#X connect 28 0 22 0;
#X connect 29 0 32 0;
#X connect 30 0 29 0;
#X connect 31 0 32 0;
#X connect 32 0 35 0;
#X connect 33 0 36 0;
#X connect 33 1 34 0;
#X connect 34 0 35 1;
#X connect 35 0 23 3;
#X connect 36 0 30 0;
